<?xml version="1.0" standalone="no"?>
<!DOCTYPE svg PUBLIC "-//W3C//DTD SVG 20010904//EN"
 "http://www.w3.org/TR/2001/REC-SVG-20010904/DTD/svg10.dtd">
<svg version="1.0" xmlns="http://www.w3.org/2000/svg"
 width="1024.000000pt" height="1024.000000pt" viewBox="0 0 1024.000000 1024.000000"
 preserveAspectRatio="xMidYMid meet">

<g transform="translate(0.000000,1024.000000) scale(0.100000,-0.100000)"
fill="#000000" stroke="none">
<path d="M3790 8791 c-163 -53 -460 -189 -622 -284 -145 -86 -263 -178 -390
-308 -205 -209 -328 -428 -384 -684 -24 -111 -24 -360 0 -468 65 -294 226
-568 490 -830 256 -255 497 -408 1360 -865 l189 -100 91 59 c50 33 173 110
273 172 100 61 182 115 183 119 0 4 -30 52 -66 105 -85 126 -193 346 -244 496
-62 185 -80 287 -87 492 -5 155 -2 197 16 304 50 291 177 563 374 797 273 326
625 538 1012 610 137 26 458 26 594 0 175 -32 486 -149 583 -217 l30 -22 -12
24 c-24 45 -235 245 -310 294 -338 219 -759 287 -1200 193 -168 -36 -397 -127
-555 -220 -252 -150 -519 -403 -670 -635 -31 -48 -44 -60 -60 -57 -11 2 -121
29 -245 59 -176 42 -687 161 -827 192 -13 3 -23 9 -23 13 0 25 304 184 554
291 83 35 165 76 182 92 35 30 74 118 74 166 0 36 -24 104 -49 140 -26 36
-105 77 -161 84 -29 3 -64 -1 -100 -12z m-619 -990 c52 -11 290 -60 529 -110
495 -102 572 -119 583 -130 4 -4 -8 -48 -27 -97 l-34 -89 -114 -7 c-115 -7
-170 -9 -608 -29 -135 -6 -299 -13 -365 -17 -66 -4 -159 -6 -208 -4 l-87 3 6
52 c11 91 34 170 75 252 48 97 118 195 140 195 9 0 59 -9 110 -19z m988 -668
c0 -16 -6 -64 -12 -107 l-12 -79 -505 -169 c-277 -92 -507 -164 -511 -160 -38
42 -133 185 -167 250 -39 74 -82 182 -82 204 0 4 26 8 58 8 31 0 147 7 257 15
110 8 346 24 525 35 179 12 339 22 355 24 91 9 95 8 94 -21z m-19 -581 l12
-149 -58 -55 c-33 -30 -99 -91 -149 -134 -49 -43 -101 -89 -115 -101 -14 -13
-29 -23 -33 -23 -14 0 -346 223 -419 281 -37 29 -64 57 -60 61 9 9 772 266
793 267 13 1 18 -23 29 -147z m119 -504 c23 -62 61 -152 84 -199 l42 -87 -50
28 c-27 15 -110 60 -182 99 -73 40 -133 75 -133 79 0 4 186 187 196 192 1 0
20 -51 43 -112z"/>
<path d="M7945 8269 c-126 -49 -264 -103 -305 -119 -933 -361 -1277 -494
-1415 -545 -55 -20 -104 -39 -108 -42 -9 -5 82 -44 528 -223 322 -129 365
-147 365 -156 0 -3 -28 -45 -62 -92 -379 -529 -811 -936 -1568 -1478 -177
-127 -268 -189 -670 -459 -459 -308 -788 -553 -1035 -773 -158 -141 -460 -455
-540 -563 -11 -14 -38 -50 -61 -80 -132 -175 -263 -402 -333 -581 -94 -240
-115 -500 -55 -705 117 -405 511 -697 1029 -764 108 -13 328 -13 445 2 408 49
826 237 1151 516 138 119 286 283 378 421 l35 54 71 -6 c38 -4 95 -9 125 -11
30 -2 109 -9 175 -15 66 -5 179 -14 250 -20 682 -54 747 -60 754 -66 8 -7 -34
-46 -104 -98 -129 -96 -312 -199 -505 -286 -224 -101 -255 -117 -287 -150 -95
-98 -75 -273 40 -348 37 -24 52 -27 122 -27 75 0 89 4 205 54 486 209 776 399
997 656 212 247 319 558 285 828 -60 477 -416 893 -1122 1309 -80 47 -265 151
-412 232 l-267 146 -193 -129 c-204 -135 -355 -231 -426 -271 -30 -17 -41 -29
-37 -40 73 -184 123 -379 146 -563 17 -143 7 -417 -20 -527 -67 -268 -169
-465 -349 -673 -258 -300 -621 -508 -1002 -577 -192 -34 -413 -19 -590 40 -87
29 -254 112 -312 155 l-47 35 5 52 c28 262 176 580 422 906 97 130 337 390
458 497 43 38 81 72 84 75 19 21 224 191 315 261 262 203 419 315 910 646 458
309 633 433 856 608 249 197 349 285 565 500 304 303 506 551 704 870 l73 116
28 -43 c15 -24 104 -162 198 -308 281 -438 342 -532 347 -528 7 8 5 2373 -3
2375 -4 1 -111 -39 -238 -88z m-2022 -3830 c95 -47 96 -50 35 -92 -38 -27 -54
-34 -59 -25 -7 12 -49 137 -49 145 0 7 13 2 73 -28z m397 -208 c62 -32 221
-127 245 -146 25 -20 49 -6 -286 -175 l-275 -139 -22 156 c-13 86 -19 160 -15
164 5 4 69 45 143 92 84 53 140 82 150 78 8 -3 35 -17 60 -30z m560 -357 c114
-82 350 -328 350 -365 0 -4 -15 -9 -32 -11 -18 -3 -186 -30 -373 -62 -417 -69
-839 -134 -844 -130 -2 2 3 56 10 120 l13 116 110 52 c61 28 239 112 396 188
157 75 290 137 295 137 6 1 40 -20 75 -45z m489 -646 c18 -97 19 -109 10 -188
-11 -99 -64 -250 -87 -250 -19 0 -338 22 -652 45 -113 9 -275 20 -360 25 -171
10 -434 31 -437 34 -1 1 14 41 33 88 27 63 42 88 58 92 11 3 183 28 381 55
198 28 389 55 425 60 36 6 171 27 300 46 129 20 240 38 245 40 6 2 24 4 42 4
30 1 32 -1 42 -51z"/>
<path d="M2152 6383 c-19 -9 -40 -26 -48 -38 -23 -35 -165 -494 -166 -535 -1
-102 93 -159 188 -114 19 9 41 29 50 45 8 16 50 139 94 274 74 223 80 248 71
283 -23 84 -111 124 -189 85z"/>
<path d="M8215 5411 c-85 -21 -171 -94 -196 -167 -20 -57 -16 -151 8 -204 56
-126 205 -189 333 -141 115 43 180 132 180 246 0 89 -23 145 -79 199 -69 63
-159 88 -246 67z"/>
<path d="M1917 5303 c-65 -22 -141 -91 -163 -150 -11 -27 -18 -73 -18 -112 0
-83 37 -157 103 -207 55 -43 109 -58 186 -51 149 11 249 121 250 272 0 120
-58 202 -173 245 -63 24 -120 25 -185 3z"/>
<path d="M8193 4536 c-37 -17 -53 -45 -82 -146 -12 -41 -51 -164 -87 -272 -60
-181 -64 -200 -54 -237 15 -56 59 -91 115 -91 57 0 91 16 114 54 24 39 134
359 167 485 27 106 23 150 -21 191 -30 29 -106 37 -152 16z"/>
<path d="M2014 4261 c-17 -10 -39 -36 -49 -57 -15 -33 -17 -46 -8 -89 24 -112
216 -599 263 -665 12 -17 37 -34 60 -41 78 -23 170 38 170 113 0 14 -38 120
-84 235 -46 114 -102 266 -126 336 -24 75 -51 137 -64 149 -44 42 -111 50
-162 19z"/>
</g>
</svg>
